<svg width="31" height="11" viewBox="0 0 31 11" fill="none" xmlns="http://www.w3.org/2000/svg">
<path d="M3.996 8.956C4.02 8.884 4.044 8.812 4.08 8.74C4.26 8.44 4.284 8.128 4.272 7.792C4.272 7.384 4.272 6.976 4.272 6.568C4.272 6.22 4.296 5.884 4.368 5.548C4.416 5.296 4.44 5.044 4.464 4.78C4.476 4.732 4.464 4.672 4.452 4.624C4.452 4.612 4.44 4.6 4.428 4.6C4.416 4.588 4.392 4.588 4.392 4.588C4.344 4.624 4.308 4.66 4.272 4.696C4.14 4.84 4.02 4.984 3.888 5.128C3.792 5.248 3.66 5.32 3.504 5.332C3.372 5.356 3.228 5.368 3.096 5.344C2.904 5.32 2.724 5.308 2.532 5.308C2.4 5.308 2.292 5.284 2.172 5.224C1.98 5.104 1.74 5.068 1.524 4.984C1.38 4.936 1.248 4.888 1.116 4.792C1.008 4.72 0.924 4.624 0.852 4.492C0.768 4.324 0.696 4.144 0.648 3.964C0.576 3.724 0.576 3.484 0.648 3.244C0.672 3.16 0.684 3.076 0.708 3.004C0.768 2.728 0.888 2.488 1.056 2.272C1.176 2.14 1.272 1.996 1.368 1.84C1.476 1.684 1.608 1.552 1.788 1.468C1.896 1.42 1.98 1.36 2.088 1.324C2.232 1.264 2.328 1.156 2.364 0.999999C2.376 0.952 2.412 0.904 2.448 0.856C2.58 0.711999 2.832 0.711999 2.952 0.856C2.976 0.879999 3 0.904 3 0.927999C3.048 1.12 3.18 1.204 3.36 1.264C3.588 1.336 3.78 1.468 3.972 1.612C4.068 1.684 4.14 1.78 4.14 1.912C4.14 2.02 4.116 2.104 4.032 2.164C3.936 2.236 3.828 2.236 3.72 2.188C3.684 2.176 3.648 2.14 3.624 2.116C3.504 2.044 3.396 1.972 3.276 1.9C3.096 1.78 2.892 1.78 2.688 1.768C2.628 1.756 2.544 1.78 2.484 1.816C2.328 1.888 2.172 1.972 2.016 2.056C1.968 2.092 1.92 2.14 1.872 2.2C1.752 2.368 1.62 2.548 1.488 2.728C1.416 2.824 1.356 2.932 1.332 3.052C1.308 3.148 1.284 3.244 1.26 3.328C1.152 3.64 1.248 3.916 1.392 4.192C1.44 4.276 1.512 4.336 1.608 4.36C1.752 4.408 1.896 4.456 2.04 4.504C2.148 4.54 2.268 4.588 2.388 4.624C2.448 4.648 2.508 4.684 2.58 4.684C2.784 4.684 2.988 4.696 3.18 4.744C3.312 4.768 3.432 4.732 3.516 4.624C3.54 4.588 3.564 4.564 3.588 4.528C3.792 4.336 3.924 4.096 3.96 3.82C3.996 3.64 4.068 3.484 4.152 3.328C4.356 2.944 4.5 2.536 4.56 2.092C4.572 2.032 4.572 1.96 4.584 1.9C4.632 1.696 4.836 1.588 5.028 1.66C5.148 1.708 5.232 1.804 5.256 1.936C5.268 1.984 5.28 2.044 5.28 2.092C5.28 2.248 5.28 2.392 5.268 2.548C5.22 2.92 5.172 3.304 5.136 3.676C5.112 3.94 5.088 4.192 5.088 4.456C5.088 4.816 5.04 5.164 4.992 5.512C4.92 5.968 4.86 6.424 4.872 6.892C4.884 7.3 4.86 7.708 4.872 8.116C4.872 8.332 4.836 8.548 4.752 8.752C4.68 8.896 4.608 9.04 4.608 9.208C4.596 9.268 4.572 9.316 4.548 9.364C4.524 9.448 4.476 9.508 4.404 9.556C4.296 9.616 4.2 9.688 4.092 9.748C3.972 9.82 3.864 9.82 3.744 9.736C3.672 9.688 3.624 9.616 3.636 9.532C3.636 9.424 3.648 9.316 3.684 9.22C3.708 9.16 3.756 9.1 3.804 9.064C3.864 9.016 3.924 8.992 3.996 8.956ZM9.89053 8.956C9.91453 8.884 9.93853 8.812 9.97453 8.74C10.1545 8.44 10.1785 8.128 10.1665 7.792C10.1665 7.384 10.1665 6.976 10.1665 6.568C10.1665 6.22 10.1905 5.884 10.2625 5.548C10.3105 5.296 10.3345 5.044 10.3585 4.78C10.3705 4.732 10.3585 4.672 10.3465 4.624C10.3465 4.612 10.3345 4.6 10.3225 4.6C10.3105 4.588 10.2865 4.588 10.2865 4.588C10.2385 4.624 10.2025 4.66 10.1665 4.696C10.0345 4.84 9.91453 4.984 9.78253 5.128C9.68653 5.248 9.55453 5.32 9.39853 5.332C9.26653 5.356 9.12253 5.368 8.99053 5.344C8.79853 5.32 8.61853 5.308 8.42653 5.308C8.29453 5.308 8.18653 5.284 8.06653 5.224C7.87453 5.104 7.63453 5.068 7.41853 4.984C7.27453 4.936 7.14253 4.888 7.01053 4.792C6.90253 4.72 6.81853 4.624 6.74653 4.492C6.66253 4.324 6.59053 4.144 6.54253 3.964C6.47053 3.724 6.47053 3.484 6.54253 3.244C6.56653 3.16 6.57853 3.076 6.60253 3.004C6.66253 2.728 6.78253 2.488 6.95053 2.272C7.07053 2.14 7.16653 1.996 7.26253 1.84C7.37053 1.684 7.50253 1.552 7.68253 1.468C7.79053 1.42 7.87453 1.36 7.98253 1.324C8.12653 1.264 8.22253 1.156 8.25853 0.999999C8.27053 0.952 8.30653 0.904 8.34253 0.856C8.47453 0.711999 8.72653 0.711999 8.84653 0.856C8.87053 0.879999 8.89453 0.904 8.89453 0.927999C8.94253 1.12 9.07453 1.204 9.25453 1.264C9.48253 1.336 9.67453 1.468 9.86653 1.612C9.96253 1.684 10.0345 1.78 10.0345 1.912C10.0345 2.02 10.0105 2.104 9.92653 2.164C9.83053 2.236 9.72253 2.236 9.61453 2.188C9.57853 2.176 9.54253 2.14 9.51853 2.116C9.39853 2.044 9.29053 1.972 9.17053 1.9C8.99053 1.78 8.78653 1.78 8.58253 1.768C8.52253 1.756 8.43853 1.78 8.37853 1.816C8.22253 1.888 8.06653 1.972 7.91053 2.056C7.86253 2.092 7.81453 2.14 7.76653 2.2C7.64653 2.368 7.51453 2.548 7.38253 2.728C7.31053 2.824 7.25053 2.932 7.22653 3.052C7.20253 3.148 7.17853 3.244 7.15453 3.328C7.04653 3.64 7.14253 3.916 7.28653 4.192C7.33453 4.276 7.40653 4.336 7.50253 4.36C7.64653 4.408 7.79053 4.456 7.93453 4.504C8.04253 4.54 8.16253 4.588 8.28253 4.624C8.34253 4.648 8.40253 4.684 8.47453 4.684C8.67853 4.684 8.88253 4.696 9.07453 4.744C9.20653 4.768 9.32653 4.732 9.41053 4.624C9.43453 4.588 9.45853 4.564 9.48253 4.528C9.68653 4.336 9.81853 4.096 9.85453 3.82C9.89053 3.64 9.96253 3.484 10.0465 3.328C10.2505 2.944 10.3945 2.536 10.4545 2.092C10.4665 2.032 10.4665 1.96 10.4785 1.9C10.5265 1.696 10.7305 1.588 10.9225 1.66C11.0425 1.708 11.1265 1.804 11.1505 1.936C11.1625 1.984 11.1745 2.044 11.1745 2.092C11.1745 2.248 11.1745 2.392 11.1625 2.548C11.1145 2.92 11.0665 3.304 11.0305 3.676C11.0065 3.94 10.9825 4.192 10.9825 4.456C10.9825 4.816 10.9345 5.164 10.8865 5.512C10.8145 5.968 10.7545 6.424 10.7665 6.892C10.7785 7.3 10.7545 7.708 10.7665 8.116C10.7665 8.332 10.7305 8.548 10.6465 8.752C10.5745 8.896 10.5025 9.04 10.5025 9.208C10.4905 9.268 10.4665 9.316 10.4425 9.364C10.4185 9.448 10.3705 9.508 10.2985 9.556C10.1905 9.616 10.0945 9.688 9.98653 9.748C9.86653 9.82 9.75853 9.82 9.63853 9.736C9.56653 9.688 9.51853 9.616 9.53053 9.532C9.53053 9.424 9.54253 9.316 9.57853 9.22C9.60253 9.16 9.65053 9.1 9.69853 9.064C9.75853 9.016 9.81853 8.992 9.89053 8.956ZM13.2171 4.972C13.2291 5.344 13.2051 5.716 13.2531 6.076C13.2651 6.112 13.2651 6.16 13.2771 6.196C13.2771 6.244 13.3491 6.28 13.3971 6.268C13.5051 6.256 13.6011 6.196 13.6971 6.136C13.7811 6.064 13.8891 6.052 13.9971 6.052C14.3571 6.064 14.6571 6.196 14.9451 6.4C14.9931 6.436 15.0291 6.472 15.0651 6.508C15.2091 6.724 15.4011 6.904 15.5331 7.132C15.5931 7.228 15.6291 7.324 15.6411 7.432C15.6411 7.516 15.6531 7.6 15.6771 7.672C15.7731 7.912 15.7971 8.176 15.7851 8.428C15.7851 8.572 15.8331 8.692 15.9291 8.8C15.9651 8.848 16.0011 8.884 16.0371 8.92C16.1211 9.004 16.1571 9.112 16.1811 9.22C16.1931 9.292 16.1931 9.376 16.1691 9.46C16.1211 9.652 15.8691 9.808 15.6531 9.628C15.5931 9.58 15.5571 9.52 15.5571 9.448C15.5451 9.34 15.4971 9.244 15.4131 9.16C15.2451 8.968 15.1851 8.74 15.1731 8.488C15.1611 8.272 15.1731 8.056 15.0771 7.852C15.0651 7.816 15.0531 7.768 15.0531 7.732C15.0771 7.528 14.9571 7.396 14.8611 7.252C14.7771 7.132 14.7051 7.024 14.5971 6.94C14.4531 6.82 14.3091 6.688 14.0931 6.7C14.0331 6.7 13.9611 6.712 13.9011 6.736C13.8411 6.748 13.8051 6.784 13.7451 6.808C13.5651 6.868 13.4691 7 13.4211 7.192C13.4211 7.216 13.4091 7.24 13.4091 7.264C13.3611 7.552 13.2651 7.564 13.4931 7.972C13.5411 8.068 13.5771 8.164 13.5771 8.272C13.5771 8.404 13.5891 8.524 13.6131 8.644C13.6251 8.776 13.6371 8.908 13.6131 9.052C13.5891 9.124 13.5651 9.208 13.5051 9.268C13.4091 9.364 13.2771 9.4 13.1691 9.352C13.0491 9.292 12.9531 9.196 12.9771 9.064C13.0371 8.836 12.9531 8.608 12.9531 8.38C12.9651 8.296 12.9291 8.224 12.8691 8.164C12.7851 8.08 12.7491 7.972 12.7491 7.864C12.7611 7.444 12.6771 7.024 12.6891 6.604C12.7011 6.424 12.6771 6.244 12.6411 6.076C12.6171 5.896 12.6051 5.728 12.6051 5.548C12.6051 5.224 12.5931 4.888 12.6171 4.564C12.6291 4.252 12.5691 3.94 12.4851 3.64C12.4611 3.556 12.4251 3.46 12.4011 3.376C12.3651 3.28 12.3891 3.184 12.4371 3.1C12.4971 2.992 12.5931 2.944 12.7131 2.956C12.8091 2.956 12.8931 3.016 12.9411 3.1C12.9651 3.136 12.9771 3.172 12.9891 3.208C13.0131 3.292 13.0371 3.364 13.0611 3.448C13.1691 3.844 13.2171 4.252 13.2171 4.696C13.2171 4.792 13.2171 4.876 13.2171 4.972ZM20.225 5.056C20.309 4.972 20.381 4.9 20.465 4.828C20.561 4.756 20.657 4.744 20.777 4.792C20.921 4.852 21.029 4.948 21.113 5.08C21.185 5.212 21.269 5.344 21.329 5.476C21.365 5.548 21.413 5.62 21.425 5.704C21.449 5.896 21.521 6.064 21.593 6.244C21.665 6.376 21.701 6.52 21.689 6.676C21.689 6.76 21.689 6.844 21.713 6.916C21.749 7.084 21.749 7.24 21.749 7.408C21.749 7.6 21.761 7.792 21.797 7.972C21.857 8.224 21.881 8.488 21.869 8.74C21.857 9.04 21.977 9.268 22.205 9.448C22.217 9.46 22.229 9.472 22.229 9.472C22.301 9.544 22.409 9.604 22.397 9.7C22.373 9.844 22.301 9.988 22.157 10.072C22.037 10.144 21.917 10.12 21.821 10.024C21.701 9.88 21.593 9.724 21.485 9.568C21.365 9.412 21.305 9.232 21.245 9.04C21.197 9.064 21.161 9.064 21.137 9.088C21.065 9.172 20.993 9.256 20.933 9.34C20.825 9.484 20.705 9.616 20.573 9.736C20.405 9.904 20.213 9.976 19.985 9.988C19.661 9.988 19.325 9.988 19.001 9.988C18.797 9.988 18.617 9.892 18.509 9.736C18.353 9.52 18.161 9.316 18.005 9.1C17.861 8.884 17.729 8.656 17.597 8.44C17.585 8.416 17.573 8.392 17.561 8.368C17.429 8.104 17.381 7.828 17.393 7.54C17.429 6.58 17.861 5.848 18.689 5.356C19.001 5.164 19.337 5.08 19.697 5.068C19.877 5.068 20.057 5.08 20.225 5.056ZM19.961 5.668C19.565 5.68 19.205 5.74 18.893 5.944C18.533 6.172 18.293 6.496 18.125 6.88C18.101 6.928 18.089 6.988 18.077 7.036C18.053 7.168 18.029 7.3 18.017 7.432C17.981 7.696 18.017 7.948 18.149 8.176C18.221 8.296 18.293 8.416 18.365 8.536C18.473 8.704 18.581 8.872 18.737 9.016C18.809 9.076 18.857 9.16 18.905 9.244C18.965 9.352 19.061 9.388 19.181 9.388C19.229 9.388 19.289 9.388 19.337 9.376C19.481 9.34 19.625 9.34 19.781 9.376C19.913 9.4 20.045 9.364 20.165 9.268C20.237 9.208 20.309 9.148 20.369 9.076C20.477 8.932 20.585 8.788 20.681 8.656C20.945 8.308 20.969 8.26 21.089 7.864C21.125 7.744 21.137 7.624 21.089 7.504C21.065 7.432 21.041 7.348 21.017 7.276C20.981 7.168 20.921 7.072 20.837 7C20.801 6.964 20.765 6.928 20.729 6.892C20.525 6.724 20.429 6.508 20.405 6.244C20.393 6.1 20.357 5.956 20.321 5.812C20.297 5.728 20.261 5.692 20.189 5.68C20.105 5.68 20.021 5.68 19.961 5.668ZM23.5922 5.98C23.5922 5.848 23.5922 5.716 23.5922 5.572C23.5922 5.344 23.6042 5.116 23.6282 4.888C23.6642 4.684 23.6642 4.48 23.6882 4.276C23.7002 4.156 23.7482 4.06 23.8682 4.024C24.0482 3.94 24.2402 4.048 24.2762 4.228C24.3002 4.36 24.3002 4.504 24.2762 4.636C24.2162 4.948 24.2042 5.26 24.2042 5.572C24.2042 5.788 24.2042 6.004 24.2042 6.22C24.2162 6.568 24.2282 6.904 24.2402 7.24C24.2522 7.312 24.2642 7.372 24.2882 7.444C24.3122 7.504 24.3482 7.564 24.3602 7.636C24.3962 7.9 24.5882 8.056 24.7682 8.224C24.8282 8.284 24.9002 8.32 24.9842 8.344C25.1882 8.416 25.3922 8.344 25.5122 8.152C25.5362 8.128 25.5482 8.08 25.5602 8.044C25.5722 7.972 25.5722 7.9 25.5722 7.84C25.5722 7.588 25.5722 7.348 25.6082 7.108C25.6442 6.892 25.6562 6.664 25.6442 6.448C25.6202 6.256 25.5722 6.052 25.5242 5.86C25.5122 5.8 25.4762 5.752 25.4762 5.704C25.4642 5.62 25.4762 5.536 25.5362 5.476C25.6322 5.392 25.7402 5.332 25.8722 5.332C26.0042 5.332 26.1482 5.44 26.1722 5.56C26.1722 5.632 26.1842 5.704 26.1842 5.764C26.1842 5.932 26.1962 6.088 26.2442 6.256C26.2802 6.364 26.2802 6.496 26.2682 6.616C26.2082 7.072 26.1722 7.54 26.1842 7.996C26.1842 8.176 26.1482 8.32 26.0642 8.464C26.0162 8.548 25.9562 8.632 25.8842 8.692C25.8122 8.74 25.7522 8.788 25.6922 8.836C25.5602 8.944 25.4042 8.992 25.2362 8.992C24.8522 8.992 24.5162 8.872 24.2402 8.584C24.0122 8.344 23.8442 8.056 23.7362 7.732C23.7122 7.66 23.6762 7.6 23.6762 7.528C23.6402 7.252 23.6042 6.964 23.5922 6.676C23.5802 6.448 23.5922 6.22 23.5922 5.98ZM27.4828 8.476C27.4828 8.44 27.4828 8.392 27.4828 8.356C27.5068 8.152 27.7108 8.032 27.9148 8.116C27.9628 8.14 27.9988 8.176 28.0228 8.224C28.0588 8.284 28.0708 8.356 28.1068 8.416C28.1308 8.476 28.1788 8.524 28.2148 8.584C28.2508 8.62 28.3108 8.644 28.3588 8.62C28.5868 8.536 28.8148 8.5 29.0428 8.464C29.2228 8.428 29.3668 8.344 29.4748 8.188C29.5708 8.056 29.6668 7.912 29.7628 7.792C29.9308 7.576 29.9668 7.348 29.8468 7.108C29.8228 7.036 29.7988 6.976 29.7868 6.916C29.7628 6.844 29.7748 6.772 29.7268 6.724C29.6428 6.652 29.5468 6.652 29.4508 6.652C29.2588 6.64 29.0668 6.64 28.8868 6.64C28.6948 6.64 28.5388 6.58 28.3828 6.472C28.2148 6.352 28.0948 6.184 28.0468 5.98C28.0108 5.884 27.9988 5.764 27.9868 5.656C27.9748 5.584 27.9748 5.5 28.0228 5.428C28.0828 5.296 28.1428 5.176 28.2028 5.056C28.3228 4.864 28.4908 4.732 28.6948 4.636C28.8268 4.564 28.9708 4.552 29.1268 4.588C29.2588 4.624 29.3668 4.756 29.3668 4.888C29.3788 5.032 29.2948 5.152 29.1508 5.188C29.1268 5.2 29.1028 5.212 29.0788 5.2C28.8628 5.188 28.7548 5.32 28.6708 5.488C28.6108 5.608 28.6108 5.716 28.6588 5.836C28.7068 5.932 28.7788 5.992 28.8748 6.016C28.9468 6.04 29.0308 6.04 29.1148 6.052C29.2948 6.052 29.4628 6.04 29.6428 6.052C29.9548 6.064 30.1948 6.208 30.3268 6.484C30.3868 6.604 30.4588 6.688 30.5548 6.76C30.6628 6.844 30.6868 6.976 30.6388 7.096C30.6268 7.12 30.6148 7.144 30.6028 7.168C30.5308 7.264 30.5068 7.36 30.5068 7.48C30.5308 7.708 30.4468 7.9 30.3028 8.08C30.1708 8.26 30.0628 8.44 29.9308 8.608C29.7268 8.872 29.4628 9.028 29.1388 9.064C28.9588 9.088 28.7908 9.136 28.6228 9.196C28.4428 9.256 28.2628 9.316 28.0708 9.304C27.9148 9.304 27.7948 9.244 27.7348 9.1C27.6988 9.016 27.6628 8.932 27.5908 8.86C27.4948 8.752 27.4708 8.62 27.4828 8.476Z" fill="white"/>
</svg>
