<svg width="120" height="100" viewBox="0 0 120 100" fill="none" xmlns="http://www.w3.org/2000/svg">
<path d="M55.2947 28.3502C55.9133 27.7944 56.7867 27.8647 57.451 27.4916C57.7478 27.3249 58.0956 27.2934 58.4312 27.2934C58.7753 27.2934 59.2694 27.1172 59.5493 27.1687C60.3878 27.3228 61.2891 27.5646 62.105 27.6824C62.9396 27.8029 63.9985 27.8717 64.7696 28.2181C65.2919 28.4527 65.9194 28.7859 66.3379 29.2089C66.7321 29.6074 67.7235 29.9518 67.9715 30.3904C68.0077 30.4545 68.5635 30.7704 68.683 30.8308C69.0147 30.9984 69.3425 31.0984 69.5397 31.4472C69.8094 31.9242 70.8675 32.4886 71.304 32.8416C72.4777 33.7907 73.4511 35.2819 74.1792 36.6065C74.6523 37.4673 74.9823 38.428 75.4715 39.3072C75.7645 39.8337 76.0345 40.6603 76.1976 41.2373C76.4789 42.2325 77.1574 43.144 77.5117 44.1288C77.7222 44.7139 77.934 45.4462 78.2305 45.9856C78.5463 46.5602 78.7987 47.5792 78.942 48.2313C79.0783 48.851 79.2559 49.4872 79.472 50.088C80.0377 51.6603 80.102 53.3469 80.7499 54.9023C81.0133 55.5346 81.0403 56.6009 81.0403 57.2801C81.0403 58.0854 80.7099 58.6957 80.4885 59.4231C80.0502 60.8629 79.6027 62.3647 79.6027 63.8851C79.6027 64.5897 79.6027 65.2942 79.6027 65.9987C79.6027 66.4899 79.4566 67.5644 79.7625 67.9509C80.0998 68.377 80.2265 69.4219 80.2562 69.9617C80.2972 70.7076 80.8688 71.4237 80.9096 72.2074C80.9298 72.5948 81.1027 73.0656 81.171 73.4624C81.2221 73.7593 81.2265 74.3911 81.4033 74.6146C81.7083 75 82.0307 75.9331 82.0858 76.4346C82.1458 76.9806 82.6191 77.7796 82.8409 78.284C83.1506 78.9883 83.5215 79.7245 83.7848 80.4563C83.8807 80.7231 83.9029 81.2074 84.0752 81.4251C84.485 81.9428 84.6471 83.0346 84.6996 83.6708C84.7404 84.1654 84.9985 84.965 85.2223 85.4174" stroke="#B9B9B9" stroke-linecap="round"/>
<path d="M55.8702 28.3244C55.0664 28.4186 54.1041 29.1053 53.3964 29.5317C52.6694 29.9698 51.7007 30.8428 51.0994 31.4769C50.4332 32.1793 49.7839 32.8145 49.0638 33.422C48.1857 34.1627 47.7815 35.6761 47.3463 36.7086C46.9466 37.6568 46.5494 38.5888 46.2296 39.5629C45.8791 40.6306 45.8424 41.8306 45.5934 42.9464C45.1574 44.9006 44.6224 46.9467 43.7841 48.7148" stroke="#B9B9B9" stroke-linecap="round"/>
<path d="M42.2365 47.6796C41.6815 48.3442 41.2475 49.2132 40.7759 49.9197C40.2653 50.6846 39.6144 51.3426 39.1161 52.102C38.022 53.7691 36.6445 55.1407 35.5235 56.7555C35.0269 57.4708 34.5783 58.3573 34.0334 59.0245C33.7672 59.3504 35.1759 59.1257 35.3612 59.1257C35.8871 59.1257 36.337 59.0944 36.8514 59.0028C37.4514 58.896 38.0967 58.8655 38.7104 58.8655C39.2108 58.8655 39.7047 58.6233 40.2153 58.6054C41.2267 58.57 42.2033 58.2152 43.2324 58.2152C44.1095 58.2152 44.9107 57.9551 45.7554 57.9551C46.1803 57.9551 46.5549 57.6949 47.0094 57.6949C47.2331 57.6949 47.9312 57.5901 48.1086 57.4637C48.2948 57.331 49.1319 57.3047 49.407 57.3047C49.7449 57.3047 49.9846 57.1938 50.3365 57.1746C51.2521 57.1248 51.266 56.1064 51.266 55.4187C51.266 54.7314 51.2101 54.1921 50.8676 53.605C50.4563 52.8999 49.8186 52.1779 49.5102 51.4227C49.1978 50.6576 48.3325 50.2508 47.9389 49.5439C47.5258 48.8021 46.4621 48.0039 45.689 47.5496" stroke="#B9B9B9" stroke-linecap="round"/>
<path d="M43.2085 49.2974C43.2085 50.5212 44.5186 51.8173 44.8871 52.9321C45.2071 53.9 46.0862 55.2666 46.0862 56.2883" stroke="#B9B9B9" stroke-linecap="round"/>
<path d="M58.9945 39.176C57.8105 39.176 56.9713 39.2071 55.9176 39.8149C55.1804 40.2401 55.3022 41.7743 55.3022 42.5532C55.3022 44.3207 56.47 47.3852 58.3693 47.9486C60.209 48.4944 63.827 47.8794 63.9175 45.3422C63.9723 43.8065 63.8175 42.3771 63.1361 41.0015C62.4351 39.5864 60.9809 39.5773 59.8736 38.8109" stroke="#B9B9B9" stroke-linecap="round"/>
<path d="M48.3205 58.6187C48.8239 58.6848 49.3036 60.7801 49.4041 61.2235C49.6625 62.3643 49.4978 63.4069 49.3474 64.513C49.1796 65.7475 48.5661 66.8682 48.3134 68.063C48.0714 69.2076 47.163 70.1952 46.7908 71.2707C46.3744 72.4743 45.4548 73.4719 45.0345 74.6644C44.846 75.1995 44.6767 75.7209 44.4963 76.2422C44.3239 76.7404 44.4062 77.3187 44.2131 77.7753C43.4051 79.6858 43.9864 81.7304 43.9864 83.6697" stroke="#B9B9B9" stroke-linecap="round"/>
<path d="M50.6904 64.5733C51.7888 64.9275 52.8532 64.9645 53.998 64.9645C55.1724 64.9645 56.3468 64.9645 57.5212 64.9645C58.3233 64.9645 59.3612 65.1418 60.1313 64.8993C61.1717 64.5718 62.2596 64.6707 63.3094 64.4357C64.1082 64.2568 65.0273 64.0809 65.8045 63.8199C66.3969 63.6209 67.3346 63.3947 67.8465 63.0664C68.2927 62.7803 69.136 62.5595 69.6513 62.4796C70.1394 62.4039 70.8201 61.9596 71.2691 61.7334C72.4385 61.1443 73.6574 60.6244 74.8212 60.0381C76.6176 59.1331 77.7404 57.8163 77.7404 55.7057" stroke="#B9B9B9" stroke-linecap="round"/>
<path d="M80.0425 73.7658C79.229 73.7658 78.9981 74.3713 78.2993 74.6882C77.5615 75.0229 76.9998 75.5892 76.2979 75.9474C75.3664 76.4227 74.4576 76.9051 73.5432 77.4262C72.9241 77.779 72.3075 78.1458 71.6565 78.4364C71.3542 78.5714 70.9039 78.6043 70.6451 78.8025C69.9617 79.3255 69.0309 79.4322 68.3495 79.9079C67.5914 80.4373 66.787 80.8424 66.0181 81.3501C65.5481 81.6605 65.0459 81.8994 64.612 82.2652C64.0922 82.7034 63.3934 82.8351 62.8258 83.2243C61.9085 83.8532 60.7857 84.1561 59.8989 84.8348" stroke="#B9B9B9" stroke-linecap="round"/>
<path d="M82.9201 81.3394C81.9411 81.4555 80.8011 82.3153 79.9967 82.8633C78.4589 83.9109 76.9101 84.8212 75.4382 86" stroke="#B9B9B9" stroke-linecap="round"/>
<path d="M59.5214 43.6433C59.4656 43.5576 59.4054 43.2936 59.4599 43.1439C59.5731 42.8331 60.021 42.9981 60.1845 43.0317C60.2583 43.0468 60.289 43.1323 60.3042 43.2041C60.3195 43.2759 60.312 43.3505 60.2709 43.4075C60.2298 43.4645 60.1554 43.5018 60.0724 43.5172C59.9895 43.5326 59.9004 43.5251 59.7634 43.4029" stroke="#B9B9B9" stroke-linecap="round"/>
<path d="M20.988 51.164C21.06 50.948 21.132 50.732 21.24 50.516C21.78 49.616 21.852 48.68 21.816 47.672C21.816 46.448 21.816 45.224 21.816 44C21.816 42.956 21.888 41.948 22.104 40.94C22.248 40.184 22.32 39.428 22.392 38.636C22.428 38.492 22.392 38.312 22.356 38.168C22.356 38.132 22.32 38.096 22.284 38.096C22.248 38.06 22.176 38.06 22.176 38.06C22.032 38.168 21.924 38.276 21.816 38.384C21.42 38.816 21.06 39.248 20.664 39.68C20.376 40.04 19.98 40.256 19.512 40.292C19.116 40.364 18.684 40.4 18.288 40.328C17.712 40.256 17.172 40.22 16.596 40.22C16.2 40.22 15.876 40.148 15.516 39.968C14.94 39.608 14.22 39.5 13.572 39.248C13.14 39.104 12.744 38.96 12.348 38.672C12.024 38.456 11.772 38.168 11.556 37.772C11.304 37.268 11.088 36.728 10.944 36.188C10.728 35.468 10.728 34.748 10.944 34.028C11.016 33.776 11.052 33.524 11.124 33.308C11.304 32.48 11.664 31.76 12.168 31.112C12.528 30.716 12.816 30.284 13.104 29.816C13.428 29.348 13.824 28.952 14.364 28.7C14.688 28.556 14.94 28.376 15.264 28.268C15.696 28.052 15.984 27.764 16.092 27.296C16.128 27.152 16.236 27.008 16.344 26.864C16.74 26.432 17.496 26.432 17.856 26.864C17.928 26.936 18 27.008 18 27.08C18.144 27.656 18.54 27.908 19.08 28.088C19.764 28.304 20.34 28.7 20.916 29.132C21.204 29.348 21.42 29.636 21.42 30.032C21.42 30.356 21.348 30.608 21.096 30.788C20.808 31.004 20.484 31.004 20.16 30.86C20.052 30.824 19.944 30.716 19.872 30.644C19.512 30.428 19.188 30.212 18.828 29.996C18.288 29.636 17.676 29.636 17.064 29.6C16.884 29.564 16.668 29.636 16.452 29.744C15.984 29.96 15.516 30.212 15.048 30.464C14.904 30.572 14.76 30.716 14.616 30.896C14.256 31.4 13.86 31.94 13.464 32.48C13.248 32.768 13.068 33.092 12.996 33.452C12.924 33.74 12.852 34.028 12.78 34.28C12.456 35.216 12.744 36.044 13.176 36.872C13.32 37.124 13.536 37.304 13.824 37.376C14.256 37.52 14.688 37.664 15.12 37.808C15.444 37.916 15.804 38.06 16.164 38.168C16.344 38.24 16.524 38.348 16.74 38.348C17.352 38.348 17.964 38.384 18.54 38.528C18.936 38.6 19.296 38.492 19.548 38.168C19.62 38.06 19.692 37.988 19.764 37.88C20.376 37.304 20.772 36.584 20.88 35.756C20.988 35.216 21.204 34.748 21.456 34.28C22.068 33.128 22.5 31.904 22.68 30.572C22.716 30.392 22.716 30.176 22.788 29.996C22.896 29.384 23.508 29.06 24.084 29.276C24.444 29.42 24.696 29.708 24.768 30.104C24.804 30.248 24.84 30.428 24.84 30.572C24.84 31.04 24.84 31.472 24.804 31.94C24.66 33.056 24.516 34.208 24.408 35.324C24.336 36.116 24.264 36.872 24.264 37.664C24.264 38.744 24.12 39.788 23.976 40.832C23.76 42.2 23.58 43.568 23.616 44.972C23.652 46.196 23.58 47.42 23.616 48.644C23.616 49.292 23.508 49.94 23.256 50.552C23.04 50.984 22.824 51.416 22.824 51.92C22.788 52.1 22.716 52.244 22.644 52.388C22.572 52.64 22.428 52.82 22.212 52.964C21.888 53.144 21.6 53.36 21.276 53.54C20.916 53.756 20.592 53.756 20.232 53.504C20.016 53.36 19.872 53.144 19.908 52.892C19.908 52.568 19.944 52.244 20.052 51.956C20.124 51.776 20.268 51.596 20.412 51.488C20.592 51.344 20.772 51.272 20.988 51.164ZM38.6716 51.164C38.7436 50.948 38.8156 50.732 38.9236 50.516C39.4636 49.616 39.5356 48.68 39.4996 47.672C39.4996 46.448 39.4996 45.224 39.4996 44C39.4996 42.956 39.5716 41.948 39.7876 40.94C39.9316 40.184 40.0036 39.428 40.0756 38.636C40.1116 38.492 40.0756 38.312 40.0396 38.168C40.0396 38.132 40.0036 38.096 39.9676 38.096C39.9316 38.06 39.8596 38.06 39.8596 38.06C39.7156 38.168 39.6076 38.276 39.4996 38.384C39.1036 38.816 38.7436 39.248 38.3476 39.68C38.0596 40.04 37.6636 40.256 37.1956 40.292C36.7996 40.364 36.3676 40.4 35.9716 40.328C35.3956 40.256 34.8556 40.22 34.2796 40.22C33.8836 40.22 33.5596 40.148 33.1996 39.968C32.6236 39.608 31.9036 39.5 31.2556 39.248C30.8236 39.104 30.4276 38.96 30.0316 38.672C29.7076 38.456 29.4556 38.168 29.2396 37.772C28.9876 37.268 28.7716 36.728 28.6276 36.188C28.4116 35.468 28.4116 34.748 28.6276 34.028C28.6996 33.776 28.7356 33.524 28.8076 33.308C28.9876 32.48 29.3476 31.76 29.8516 31.112C30.2116 30.716 30.4996 30.284 30.7876 29.816C31.1116 29.348 31.5076 28.952 32.0476 28.7C32.3716 28.556 32.6236 28.376 32.9476 28.268C33.3796 28.052 33.6676 27.764 33.7756 27.296C33.8116 27.152 33.9196 27.008 34.0276 26.864C34.4236 26.432 35.1796 26.432 35.5396 26.864C35.6116 26.936 35.6836 27.008 35.6836 27.08C35.8276 27.656 36.2236 27.908 36.7636 28.088C37.4476 28.304 38.0236 28.7 38.5996 29.132C38.8876 29.348 39.1036 29.636 39.1036 30.032C39.1036 30.356 39.0316 30.608 38.7796 30.788C38.4916 31.004 38.1676 31.004 37.8436 30.86C37.7356 30.824 37.6276 30.716 37.5556 30.644C37.1956 30.428 36.8716 30.212 36.5116 29.996C35.9716 29.636 35.3596 29.636 34.7476 29.6C34.5676 29.564 34.3516 29.636 34.1356 29.744C33.6676 29.96 33.1996 30.212 32.7316 30.464C32.5876 30.572 32.4436 30.716 32.2996 30.896C31.9396 31.4 31.5436 31.94 31.1476 32.48C30.9316 32.768 30.7516 33.092 30.6796 33.452C30.6076 33.74 30.5356 34.028 30.4636 34.28C30.1396 35.216 30.4276 36.044 30.8596 36.872C31.0036 37.124 31.2196 37.304 31.5076 37.376C31.9396 37.52 32.3716 37.664 32.8036 37.808C33.1276 37.916 33.4876 38.06 33.8476 38.168C34.0276 38.24 34.2076 38.348 34.4236 38.348C35.0356 38.348 35.6476 38.384 36.2236 38.528C36.6196 38.6 36.9796 38.492 37.2316 38.168C37.3036 38.06 37.3756 37.988 37.4476 37.88C38.0596 37.304 38.4556 36.584 38.5636 35.756C38.6716 35.216 38.8876 34.748 39.1396 34.28C39.7516 33.128 40.1836 31.904 40.3636 30.572C40.3996 30.392 40.3996 30.176 40.4716 29.996C40.5796 29.384 41.1916 29.06 41.7676 29.276C42.1276 29.42 42.3796 29.708 42.4516 30.104C42.4876 30.248 42.5236 30.428 42.5236 30.572C42.5236 31.04 42.5236 31.472 42.4876 31.94C42.3436 33.056 42.1996 34.208 42.0916 35.324C42.0196 36.116 41.9476 36.872 41.9476 37.664C41.9476 38.744 41.8036 39.788 41.6596 40.832C41.4436 42.2 41.2636 43.568 41.2996 44.972C41.3356 46.196 41.2636 47.42 41.2996 48.644C41.2996 49.292 41.1916 49.94 40.9396 50.552C40.7236 50.984 40.5076 51.416 40.5076 51.92C40.4716 52.1 40.3996 52.244 40.3276 52.388C40.2556 52.64 40.1116 52.82 39.8956 52.964C39.5716 53.144 39.2836 53.36 38.9596 53.54C38.5996 53.756 38.2756 53.756 37.9156 53.504C37.6996 53.36 37.5556 53.144 37.5916 52.892C37.5916 52.568 37.6276 52.244 37.7356 51.956C37.8076 51.776 37.9516 51.596 38.0956 51.488C38.2756 51.344 38.4556 51.272 38.6716 51.164ZM51.7832 24.38C51.6392 24.704 51.6752 25.028 51.6752 25.352C51.6752 27.44 51.6752 29.528 51.6752 31.616C51.6752 31.94 51.6752 32.264 51.6752 32.588C51.6392 32.84 51.6032 33.056 51.5672 33.308C51.4952 33.632 51.1712 33.848 50.8472 33.848C50.4512 33.884 50.1992 33.704 50.0552 33.38C50.0192 33.236 49.9832 33.056 49.9472 32.912C49.9472 32.588 49.9472 32.264 49.9472 31.94C49.9472 29.888 49.9472 27.836 49.9472 25.784C49.9472 25.46 49.9472 25.136 49.9112 24.812C49.9112 24.56 49.6952 24.38 49.4432 24.344C49.1912 24.344 48.9392 24.344 48.6872 24.308C48.1832 24.308 47.6432 24.272 47.1032 24.236C46.9952 24.236 46.8512 24.2 46.7432 24.164C46.3832 24.02 46.1312 23.624 46.1672 23.192C46.1672 22.76 46.5272 22.4 46.9232 22.364C47.2472 22.328 47.5712 22.364 47.8952 22.364C48.3632 22.364 48.7952 22.4 49.2632 22.4C49.9472 22.4 50.0552 22.292 50.0912 21.644C50.0912 21.428 50.0912 21.176 50.0912 20.924C50.0192 19.952 50.1992 19.052 50.5232 18.152C50.8472 17.18 50.9912 16.172 51.0272 15.164C51.0272 14.408 51.0992 13.688 51.1712 12.932C51.1712 12.824 51.2072 12.716 51.2432 12.572C51.3512 12.32 51.5312 12.104 51.8552 12.068C52.2152 11.996 52.5392 12.14 52.6832 12.428C52.8632 12.716 52.9712 13.004 52.9712 13.364C52.9712 13.544 52.9352 13.76 52.8992 13.94C52.7552 14.516 52.7192 15.092 52.7192 15.668C52.7552 16.676 52.5752 17.684 52.2152 18.656C51.8552 19.7 51.6752 20.78 51.8192 21.932C51.8192 22.076 51.9992 22.22 52.1432 22.184C52.3952 22.148 52.6472 22.112 52.8632 22.076C54.4472 21.716 56.0312 21.536 57.6152 21.572C58.3352 21.572 59.0912 21.572 59.8112 21.572C60.2432 21.608 60.4232 21.428 60.3512 20.996C60.2072 20.24 60.2072 19.52 60.2072 18.8C60.2072 17.72 60.2072 16.676 60.2072 15.596C60.2072 14.912 60.2792 14.228 60.3152 13.508C60.3872 12.5 60.4952 11.492 60.2072 10.484C60.1712 10.34 60.1712 10.232 60.1712 10.124C60.1352 9.62 60.5672 9.188 61.0712 9.116C61.3592 9.116 61.5752 9.224 61.7552 9.404C61.9352 9.62 62.0792 9.872 62.0792 10.196C62.0432 11.672 62.1872 13.112 61.9712 14.588C61.8992 14.876 61.9352 15.164 61.9352 15.452C61.8992 16.28 61.9352 17.072 61.8992 17.9C61.8992 18.98 61.9712 20.024 62.1152 21.068C62.1512 21.392 62.2952 21.608 62.6192 21.644C62.7632 21.644 62.8712 21.68 62.9792 21.752C63.3392 21.932 63.5552 22.22 63.5192 22.652C63.5192 23.048 63.3032 23.336 62.9432 23.48C62.8712 23.516 62.7632 23.552 62.6912 23.552C62.3312 23.624 62.2592 23.876 62.3312 24.2C62.4392 24.704 62.5472 25.172 62.6192 25.64C62.7632 26.36 62.9072 27.08 62.9792 27.836C63.0512 28.304 63.0152 28.808 63.0152 29.276C63.0152 29.564 62.9072 29.852 62.7632 30.104C62.6192 30.284 62.4752 30.392 62.2592 30.428C61.7192 30.536 61.2512 30.176 61.2512 29.636C61.2152 29.564 61.2152 29.456 61.2512 29.384C61.3592 28.736 61.2512 28.088 61.1432 27.44C60.9632 26.252 60.7472 25.1 60.4592 23.948C60.3872 23.732 60.2432 23.624 60.0272 23.588C59.8472 23.552 59.7032 23.516 59.5232 23.516C58.2272 23.48 56.8952 23.444 55.5992 23.588C54.3752 23.696 53.1872 23.948 51.9992 24.272C51.9272 24.272 51.8552 24.344 51.7832 24.38ZM77.6914 33.848C77.6914 33.344 77.6914 32.84 77.6914 32.372C77.7274 31.796 77.7274 31.22 77.6554 30.644C77.6194 30.212 77.6554 29.744 77.6554 29.312C77.6554 28.628 77.6554 27.908 77.6554 27.224C77.6914 27.152 77.4754 27.008 77.4034 27.044C77.3674 27.044 77.3314 27.044 77.2954 27.08C76.5034 27.548 75.6754 27.548 74.8114 27.404C73.8394 27.26 72.8674 27.224 71.8594 27.152C71.7154 27.152 71.5354 27.152 71.3914 27.188C70.5634 27.26 70.3474 27.26 70.2394 28.268C70.1674 28.988 69.9154 29.708 69.9514 30.428C69.6994 31.472 69.5194 32.516 68.9074 33.416C68.4034 34.172 68.0794 35.036 68.0434 35.936C68.0434 36.404 67.7194 36.728 67.2874 36.728C66.7834 36.764 66.4594 36.584 66.2434 36.044C66.2074 35.936 66.2074 35.792 66.2434 35.684C66.3154 35.36 66.3874 35.036 66.4594 34.712C66.6034 33.956 66.8914 33.236 67.3234 32.588C67.8994 31.76 68.1154 30.788 68.2594 29.816C68.4034 28.556 68.6194 27.332 68.9074 26.108C69.2314 24.632 69.5554 23.156 69.7714 21.644C69.8434 20.996 69.9874 20.348 70.0954 19.736C70.1674 19.448 70.2394 19.16 70.2394 18.872C70.2754 18.116 70.4554 17.432 70.6714 16.712C71.3554 14.408 71.2474 14.84 72.3274 13.04C72.6514 12.5 73.0114 11.96 73.3714 11.42C73.4794 11.24 73.6234 11.06 73.7674 10.916C74.0194 10.628 74.3074 10.484 74.7034 10.448C75.3514 10.412 75.9274 10.556 76.4314 10.952C77.0434 11.384 77.6194 11.816 78.0874 12.392C78.4114 12.752 78.6634 13.184 78.7714 13.688C78.9514 14.444 79.0954 15.2 79.0954 15.992C79.0954 16.856 79.1314 17.684 79.0954 18.548C79.0954 19.772 79.2034 20.996 79.3114 22.22C79.3834 23.012 79.3114 23.768 79.3834 24.56C79.3834 24.632 79.5634 24.776 79.6714 24.74C79.8154 24.704 79.9594 24.668 80.1394 24.632C80.2474 24.596 80.3554 24.56 80.4994 24.524C80.9314 24.452 81.3994 24.812 81.4714 25.244C81.5434 25.568 81.3994 25.82 81.1834 26.036C81.0754 26.144 80.9314 26.216 80.7874 26.288C80.4994 26.396 80.1754 26.54 79.8514 26.648C79.5994 26.72 79.4914 26.936 79.4554 27.188C79.4194 27.296 79.4194 27.44 79.4194 27.548C79.3834 28.7 79.2394 29.816 79.4194 30.968C79.4554 31.076 79.4554 31.22 79.4554 31.328C79.4194 32.588 79.4194 33.884 79.3834 35.144C79.3474 36.008 79.4194 36.836 79.6714 37.664C79.7794 38.06 79.8874 38.456 79.9594 38.852C80.0314 39.212 79.8154 39.608 79.4914 39.788C79.1674 39.932 78.7354 39.86 78.4834 39.572C78.3394 39.428 78.2314 39.212 78.1954 39.032C78.0154 38.492 77.8714 37.952 77.7634 37.376C77.6914 36.908 77.6554 36.404 77.6554 35.9C77.6554 35.216 77.6914 34.532 77.7274 33.848H77.6914ZM77.4034 19.124C77.4034 18.8 77.4034 18.44 77.4034 18.08C77.4394 17.108 77.3314 16.136 77.2594 15.128C77.2234 14.804 77.1514 14.516 77.0794 14.192C77.0074 13.904 76.8634 13.652 76.6474 13.436C76.2874 13.04 75.8914 12.716 75.4234 12.428C75.1354 12.248 74.9554 12.284 74.7754 12.536C74.2354 13.4 73.6594 14.264 73.1194 15.128C73.0114 15.344 72.8674 15.56 72.7954 15.776C72.4354 17 71.9314 18.188 71.9314 19.484C71.9314 19.628 71.8954 19.808 71.8594 19.952C71.4994 21.536 71.3194 23.156 71.0314 24.776C70.9954 24.848 70.9954 24.956 70.9954 25.028C70.9954 25.136 71.1394 25.352 71.2834 25.388C71.7154 25.388 72.1834 25.424 72.6154 25.46C73.2634 25.46 73.9114 25.496 74.5594 25.532C74.9554 25.568 75.3154 25.676 75.6754 25.712C76.1074 25.712 76.3954 25.352 76.7914 25.28C77.6194 25.1 77.6194 25.028 77.6554 24.2C77.6914 23.696 77.6914 23.228 77.5834 22.724C77.5474 22.436 77.5114 22.148 77.5114 21.86C77.4754 20.96 77.4394 20.096 77.4034 19.124ZM90.7003 32.732C91.3483 32.12 91.8523 31.436 92.2123 30.644C92.6803 29.564 93.2203 28.52 93.7243 27.44C93.8323 27.188 93.9403 26.9 94.0123 26.648C94.3003 25.82 94.5523 24.992 94.9123 24.236C95.2723 23.516 95.3443 22.724 95.5243 22.004C95.6683 21.248 95.8123 20.456 95.9563 19.7C95.9923 19.52 96.0283 19.304 96.0283 19.088C96.0283 18.332 96.0283 17.54 96.0283 16.784C96.0283 16.496 95.9563 16.208 95.8483 15.92C95.6683 15.416 96.0283 14.768 96.5323 14.48C96.8563 14.264 97.3963 14.408 97.6123 14.732C97.7563 14.948 97.8643 15.164 97.8643 15.416C97.9003 15.956 97.9003 16.46 97.9003 17C97.9003 18.728 97.7203 20.42 97.3603 22.112C97.1083 23.336 96.8563 24.596 96.2803 25.748C95.9203 27.152 95.2723 28.484 94.6243 29.816C94.3003 30.464 93.9763 31.148 93.6883 31.796C93.2923 32.768 92.5363 33.488 91.8523 34.244C91.6003 34.496 91.3123 34.604 90.9883 34.604C90.2683 34.64 89.5843 34.64 88.9003 34.64C88.5043 34.604 88.1803 34.46 87.8923 34.172C87.4603 33.704 86.9203 33.308 86.5963 32.696C86.5243 32.552 86.4163 32.444 86.3083 32.336C85.8403 31.904 85.5883 31.328 85.3363 30.788C85.1203 30.356 85.0483 29.924 85.1923 29.492C85.3723 28.916 85.3723 28.376 85.3723 27.8C85.3723 27.152 85.3363 26.468 85.5883 25.856C85.6243 25.712 85.6243 25.532 85.6243 25.352C85.5523 24.56 85.7323 23.84 85.9123 23.084C86.0923 22.364 86.2723 21.644 86.3803 20.924C86.4523 20.6 86.5603 20.276 86.7043 19.988C86.8123 19.736 86.9203 19.484 86.9203 19.16C86.9203 19.016 86.9563 18.836 86.9923 18.692C87.2443 17.72 87.2803 16.748 86.9923 15.812C86.8843 15.524 86.9203 15.236 87.1003 14.984C87.4603 14.516 88.1803 14.516 88.5043 14.948C88.8283 15.344 88.9723 15.812 89.0083 16.316C89.0083 17.252 89.0803 18.188 88.8283 19.124C88.6843 19.7 88.5763 20.312 88.3243 20.852C88.1443 21.32 88.0723 21.824 87.9643 22.292C87.7843 23.048 87.6403 23.804 87.4963 24.56C87.4243 24.884 87.4243 25.208 87.4243 25.532C87.3883 26 87.3883 26.432 87.2443 26.864C87.1723 27.116 87.1723 27.44 87.1723 27.728C87.1363 28.412 87.1003 29.096 87.1003 29.78C87.0643 29.996 87.1003 30.212 87.2083 30.392C87.3163 30.572 87.3883 30.752 87.4963 30.896C87.7843 31.256 88.0363 31.616 88.3243 31.976C88.5043 32.192 88.7203 32.408 88.9363 32.588C89.0443 32.696 89.2243 32.768 89.3683 32.768C89.8363 32.804 90.2683 32.84 90.7003 32.732ZM104.329 25.208C104.257 25.244 104.149 25.208 104.077 25.244C103.681 25.424 103.177 25.28 102.781 25.568C102.241 26.036 101.557 26.36 101.125 26.972C100.945 27.224 100.729 27.404 100.549 27.656C100.225 28.088 100.045 28.556 100.045 29.096C100.081 29.852 100.045 30.572 100.045 31.328C100.045 31.688 99.9731 32.048 99.9011 32.408C99.7211 33.308 99.4331 34.208 99.5411 35.18C99.5771 35.504 99.6851 35.72 99.9371 35.9C100.477 36.26 101.089 36.548 101.737 36.584C101.845 36.584 101.917 36.584 101.989 36.62C102.817 36.836 103.681 36.872 104.545 36.872C105.085 36.872 105.553 37.124 105.985 37.484C106.309 37.736 106.597 38.024 106.849 38.348C107.173 38.744 107.497 39.176 107.785 39.608C107.929 39.824 108.037 40.04 108.109 40.292C108.325 40.94 108.505 41.588 108.721 42.272C108.829 42.56 108.901 42.884 108.901 43.208C108.901 44.036 108.901 44.864 108.901 45.656C108.937 46.376 108.289 47.204 107.497 47.456C106.021 47.852 104.581 47.888 103.105 47.6C102.961 47.564 102.781 47.528 102.637 47.528C101.989 47.528 101.341 47.456 100.765 47.096C100.621 47.024 100.441 47.024 100.297 46.988C99.7931 46.88 99.3251 46.772 98.8571 46.628C98.5331 46.556 98.2811 46.16 98.2811 45.8C98.3171 45.404 98.6051 45.044 98.9291 44.972C99.3611 44.9 99.8291 44.9 100.261 45.008C100.405 45.08 100.585 45.152 100.729 45.152C101.665 45.332 102.493 45.764 103.465 45.764C104.077 46.016 104.761 45.944 105.409 45.98C105.913 45.98 106.345 45.764 106.813 45.62C106.921 45.62 106.993 45.44 107.029 45.332C107.101 44.252 107.173 43.136 106.741 42.092C106.633 41.84 106.561 41.624 106.489 41.372C106.273 40.508 105.733 39.86 105.157 39.212C104.797 38.816 104.365 38.636 103.861 38.636C103.609 38.636 103.357 38.636 103.105 38.636C102.673 38.636 102.205 38.636 101.773 38.456C101.593 38.42 101.377 38.384 101.197 38.384C100.045 38.204 99.1091 37.7 98.2811 36.908C97.8851 36.512 97.7051 36.008 97.7051 35.468C97.7051 34.928 97.6691 34.388 97.7051 33.884C97.7051 33.668 97.7411 33.452 97.7771 33.272C97.7771 33.2 97.8131 33.128 97.8491 33.02C98.1011 32.084 98.2091 31.112 98.2091 30.14C98.2091 29.6 98.2091 29.06 98.2091 28.52C98.1731 27.836 98.4611 27.26 98.8571 26.756C99.1091 26.396 99.3611 26.072 99.6491 25.784C100.369 24.956 101.197 24.236 102.205 23.768C102.961 23.408 103.753 23.228 104.581 23.3C105.013 23.372 105.409 23.444 105.661 23.804C105.769 23.912 105.913 24.02 106.057 24.128C106.813 24.596 107.101 25.352 107.101 26.216C107.137 27.044 107.065 27.908 107.101 28.772C107.137 29.492 106.885 30.14 106.525 30.716C106.165 31.256 105.877 31.76 105.661 32.336C105.481 32.948 104.725 33.092 104.293 32.66C104.185 32.588 104.113 32.48 104.077 32.372C103.933 31.904 103.933 31.472 104.113 31.04C104.221 30.788 104.401 30.536 104.545 30.284C104.653 30.104 104.761 29.96 104.869 29.78C105.121 29.312 105.301 28.808 105.265 28.268C105.265 27.764 105.265 27.26 105.265 26.792C105.301 26.036 105.013 25.532 104.329 25.208Z" fill="#1C1C1C"/>
</svg>
